<?xml version="1.0" standalone="no"?>
<!DOCTYPE svg PUBLIC "-//W3C//DTD SVG 20010904//EN"
 "http://www.w3.org/TR/2001/REC-SVG-20010904/DTD/svg10.dtd">
<svg version="1.0" xmlns="http://www.w3.org/2000/svg"
 width="260.000000pt" height="260.000000pt" viewBox="0 0 260.000000 260.000000"
 preserveAspectRatio="xMidYMid meet">
<metadata>
Created by potrace 1.11, written by Peter Selinger 2001-2013
</metadata>
<g transform="translate(0.000000,260.000000) scale(0.100000,-0.100000)"
fill="#000000" stroke="none">
<path d="M640 2090 c-14 -51 -8 -60 39 -60 21 0 66 -3 100 -6 57 -6 61 -9 61
-32 0 -30 -307 -1271 -319 -1291 -11 -17 -82 -30 -168 -30 l-62 -1 -10 -37
c-7 -25 -7 -41 -1 -47 7 -7 143 -11 366 -11 393 -1 374 -4 374 63 l0 29 -122
6 c-78 5 -127 12 -135 20 -11 10 1 68 60 307 l73 295 134 3 c215 5 249 -15
235 -136 -14 -126 -14 -127 22 -130 23 -2 34 2 41 15 16 31 153 603 147 613
-9 14 -75 12 -80 -2 -2 -7 -11 -38 -19 -68 -22 -79 -63 -137 -115 -162 -37
-18 -68 -22 -193 -26 l-149 -5 6 24 c3 13 38 152 78 309 l72 284 40 9 c22 5
137 7 255 4 229 -6 280 -15 328 -60 51 -47 57 -71 57 -232 l0 -150 29 -3 c16
-2 32 0 37 5 11 11 72 510 65 529 -5 12 -96 14 -620 14 l-615 0 -11 -40z"/>
<path d="M1760 1334 c-258 -142 -280 -157 -290 -194 -29 -109 -42 -447 -19
-507 5 -15 42 -62 80 -105 l70 -77 -73 -53 c-40 -30 -103 -76 -140 -103 -38
-27 -68 -53 -68 -57 0 -18 35 -21 61 -5 28 15 31 14 116 -28 108 -54 213 -84
318 -92 l80 -5 85 72 c131 112 280 263 280 283 0 10 -17 91 -37 180 -33 147
-36 175 -36 307 0 158 15 278 43 352 12 32 14 48 7 51 -7 2 -44 -11 -84 -30
-39 -18 -84 -33 -100 -33 -15 0 -66 16 -113 36 -47 20 -92 38 -100 40 -8 2
-44 -12 -80 -32z m61 -156 c63 -21 127 -40 143 -43 23 -5 27 -10 22 -28 -3
-12 -6 -108 -6 -214 l0 -192 -70 -42 c-84 -50 -95 -48 -177 23 l-61 53 -7 95
c-5 56 -4 148 3 225 11 131 18 168 32 163 3 -2 58 -20 121 -40z m206 -799 c6
-86 6 -87 -21 -104 -44 -29 -111 -14 -254 55 -109 53 -124 63 -111 75 8 8 86
64 174 125 l160 111 23 -88 c12 -48 25 -127 29 -174z"/>
</g>
</svg>
